HIERARCHY
ROOT Hips
{
	OFFSET 0.000000 0.000000 0.000000
	CHANNELS 6 Xposition Yposition Zposition Zrotation Yrotation Xrotation 
	JOINT LHipJoint
	{
		OFFSET 0.000000 0.000000 0.000000
		CHANNELS 3 Zrotation Yrotation Xrotation
		JOINT LeftUpLeg
		{
			OFFSET 1.363060 -1.794630 0.839290
			CHANNELS 3 Zrotation Yrotation Xrotation
			JOINT LeftLeg
			{
				OFFSET 2.448110 -6.726130 0.000000
				CHANNELS 3 Zrotation Yrotation Xrotation
				JOINT LeftFoot
				{
					OFFSET 2.562200 -7.039590 0.000000
					CHANNELS 3 Zrotation Yrotation Xrotation
					JOINT LeftToeBase
					{
						OFFSET 0.157640 -0.433110 2.322550
						CHANNELS 3 Zrotation Yrotation Xrotation
						End Site
						{
							OFFSET 0.000000 0.000000 0.000000
						}
					}
				}
			}
		}
	}
	JOINT RHipJoint
	{
		OFFSET 0.000000 0.000000 0.000000
		CHANNELS 3 Zrotation Yrotation Xrotation
		JOINT RightUpLeg
		{
			OFFSET -1.305520 -1.794630 0.839290
			CHANNELS 3 Zrotation Yrotation Xrotation
			JOINT RightLeg
			{
				OFFSET -2.542530 -6.985550 0.000000
				CHANNELS 3 Zrotation Yrotation Xrotation
				JOINT RightFoot
				{
					OFFSET -2.568260 -7.056230 0.000000
					CHANNELS 3 Zrotation Yrotation Xrotation
					JOINT RightToeBase
					{
						OFFSET -0.164730 -0.452590 2.363150
						CHANNELS 3 Zrotation Yrotation Xrotation
						End Site
						{
							OFFSET 0.000000 0.000000 0.000000
						}
					}
				}
			}
		}
	}
	JOINT LowerBack
	{
		OFFSET 0.000000 0.000000 0.000000
		CHANNELS 3 Zrotation Yrotation Xrotation
		JOINT Spine
		{
			OFFSET 0.028270 2.035590 -0.193380
			CHANNELS 3 Zrotation Yrotation Xrotation
			JOINT Spine1
			{
				OFFSET 0.056720 2.048850 -0.042750
				CHANNELS 3 Zrotation Yrotation Xrotation
				JOINT Neck
				{
					OFFSET 0.000000 0.000000 0.000000
					CHANNELS 3 Zrotation Yrotation Xrotation
					JOINT Neck1
					{
						OFFSET -0.054170 1.746240 0.172020
						CHANNELS 3 Zrotation Yrotation Xrotation
						JOINT Head
						{
							OFFSET 0.104070 1.761360 -0.123970
							CHANNELS 3 Zrotation Yrotation Xrotation
							End Site
							{
								OFFSET 0.000000 0.000000 0.000000
							}
						}
					}
				}
				JOINT LeftShoulder
				{
					OFFSET 0.000000 0.000000 0.000000
					CHANNELS 3 Zrotation Yrotation Xrotation
					JOINT LeftArm
					{
						OFFSET 3.362410 1.200890 -0.311210
						CHANNELS 3 Zrotation Yrotation Xrotation
						JOINT LeftForeArm
						{
							OFFSET 4.983000 -0.000000 -0.000000
							CHANNELS 3 Zrotation Yrotation Xrotation
							JOINT LeftHand
							{
								OFFSET 3.483560 -0.000000 -0.000000
								CHANNELS 3 Zrotation Yrotation Xrotation
								JOINT LeftFingerBase
								{
									OFFSET 0.000000 0.000000 0.000000
									CHANNELS 3 Zrotation Yrotation Xrotation
									JOINT LeftHandIndex1
									{
										OFFSET 0.715260 -0.000000 -0.000000
										CHANNELS 3 Zrotation Yrotation Xrotation
										End Site
										{
											OFFSET 0.000000 0.000000 0.000000
										}
									}
								}
								JOINT LThumb
								{
									OFFSET 0.000000 0.000000 0.000000
									CHANNELS 3 Zrotation Yrotation Xrotation
									End Site
									{
										OFFSET 0.000000 0.000000 0.000000
									}
								}
							}
						}
					}
				}
				JOINT RightShoulder
				{
					OFFSET 0.000000 0.000000 0.000000
					CHANNELS 3 Zrotation Yrotation Xrotation
					JOINT RightArm
					{
						OFFSET -3.136600 1.374050 -0.404650
						CHANNELS 3 Zrotation Yrotation Xrotation
						JOINT RightForeArm
						{
							OFFSET -5.241900 -0.000000 -0.000000
							CHANNELS 3 Zrotation Yrotation Xrotation
							JOINT RightHand
							{
								OFFSET -3.444170 -0.000000 -0.000000
								CHANNELS 3 Zrotation Yrotation Xrotation
								JOINT RightFingerBase
								{
									OFFSET 0.000000 0.000000 0.000000
									CHANNELS 3 Zrotation Yrotation Xrotation
									JOINT RightHandIndex1
									{
										OFFSET -0.622530 -0.000000 -0.000000
										CHANNELS 3 Zrotation Yrotation Xrotation
										End Site
										{
											OFFSET 0.000000 0.000000 0.000000
										}
									}
								}
								JOINT RThumb
								{
									OFFSET 0.000000 0.000000 0.000000
									CHANNELS 3 Zrotation Yrotation Xrotation
									End Site
									{
										OFFSET 0.000000 0.000000 0.000000
									}
								}
							}
						}
					}
				}
			}
		}
	}
}
MOTION
Frames: 9
Frame Time: 0.008333
6.139941 17.658306 -0.774947 -108.071061 -85.150582 103.181754 7.531216 1.034831 -0.079642 -20.035480 -16.475892 -1.940846 0.324867 9.945064 28.051666 -2.733740 13.646120 -11.044097 0.335400 -3.722000 -10.295900 -9.913816 0.428504 -2.748520 39.372356 12.215069 7.336952 0.153685 -6.107241 16.016936 3.314810 -21.071361 -21.054447 -0.694900 5.328800 -14.848600 6.767269 1.046745 11.411881 2.912667 2.212109 2.955727 -7.977686 1.071322 1.818349 5.630026 3.581416 -3.437136 6.437627 3.065696 8.818867 -3.174100 1.914600 3.110900 8.498046 3.482885 -0.988236 -98.489066 1.603041 18.614903 17.268611 -22.599979 -5.515578 -1.473747 -3.106362 1.360323 17.420464 3.924091 2.440600 -7.125000 0.000000 0.000000 -6.748300 37.469300 1.257700 -11.023201 -4.294812 0.392083 98.713127 0.102788 41.934722 -15.337012 23.076301 -4.888015 0.601271 2.166958 -18.775966 -16.119574 2.648693 -0.223400 7.125000 0.000000 0.000000 7.154500 -29.199300 2.774700 
6.127649 17.657737 -0.747632 -109.848777 -85.318448 104.785560 7.536707 1.028238 -0.054960 -20.540823 -16.737985 -1.564860 0.309618 9.944222 28.047781 -2.804225 13.986089 -11.424093 0.272000 -3.354600 -9.267700 -9.913627 0.451013 -2.758545 39.201572 12.427952 7.730614 0.150899 -6.058396 15.995268 3.246468 -20.945594 -21.485286 -0.582000 4.884900 -13.580400 6.389930 1.034176 11.583422 2.868384 2.185974 2.904555 -7.920413 1.034819 1.584295 5.666135 3.473130 -3.368232 6.268100 2.975352 9.130103 -2.932200 1.887800 2.920400 8.427501 3.549295 -0.994263 -98.195100 1.597706 18.419204 16.901456 -22.020410 -5.190469 -1.579322 -3.041347 1.786874 17.764990 3.903767 2.475500 -7.125000 0.000000 0.000000 -6.377500 37.421800 1.195300 -10.992236 -4.293278 0.376218 98.854861 -0.186714 41.614016 -15.284366 23.017219 -4.862252 0.602565 2.164483 -18.588639 -16.068575 2.645408 -0.221400 7.125000 0.000000 0.000000 7.198900 -29.203400 2.791400 
6.110464 17.663883 -0.716789 -111.443055 -85.492769 106.419517 7.539587 1.008135 -0.039297 -20.956136 -16.886414 -1.481593 0.292249 9.960038 28.033372 -2.836769 14.156902 -11.592293 0.197100 -2.858800 -7.885900 -9.902306 0.461424 -2.764422 38.867909 12.512678 7.886311 0.151237 -5.997934 15.913394 3.120598 -20.589044 -21.865158 -0.540000 4.708200 -13.078000 6.087656 1.056813 11.380133 2.806434 2.179722 2.858710 -7.918242 1.028836 1.582766 5.629742 3.407570 -3.415789 6.369887 2.888162 9.299081 -2.871300 1.868000 2.989700 8.374026 3.605279 -0.999847 -97.834701 1.590835 18.383676 16.630850 -21.603047 -4.954597 -1.619643 -3.060983 2.085065 17.896988 4.335418 2.657700 -7.125000 0.000000 0.000000 -6.304400 37.914500 1.105000 -10.993509 -4.326683 0.365861 99.068981 -0.486422 41.140752 -15.290952 23.065858 -4.883814 0.590557 2.163595 -18.456208 -15.905481 2.648469 -0.218500 7.125000 0.000000 0.000000 7.338400 -29.204200 2.846200 
6.100334 17.668777 -0.687653 -111.576035 -85.306724 106.715370 7.534475 1.006031 -0.039772 -20.827181 -16.903967 -1.635977 0.282993 9.958171 27.990885 -2.851388 14.194242 -11.527457 0.149700 -2.493600 -6.872000 -9.905498 0.481459 -2.752066 38.927308 12.662538 7.881522 0.168253 -5.953228 15.792389 3.007166 -20.285154 -22.236250 -0.537400 4.697100 -13.046600 6.113975 1.063929 11.067739 2.793126 2.176869 2.822027 -7.911264 1.024022 1.709693 5.481860 3.454903 -3.672050 6.554932 2.952538 9.579581 -2.732900 1.935900 3.159500 8.321246 3.641556 -1.007537 -97.496082 1.460315 18.284021 16.399788 -21.242641 -4.764687 -1.610154 -3.069775 2.334180 17.740445 4.683003 2.755300 -7.125000 0.000000 0.000000 -6.505900 38.279300 1.082200 -10.987071 -4.328258 0.348072 99.211610 -0.627520 40.837451 -15.312271 23.131207 -4.912808 0.580900 2.160987 -18.491160 -15.759199 2.712629 -0.236400 7.125000 0.000000 0.000000 7.454500 -29.135800 2.904100 
6.086222 17.670598 -0.655558 -112.621986 -85.217396 107.808441 7.520699 1.023185 -0.035903 -20.844251 -16.708276 -1.686065 0.277689 9.947075 27.953948 -2.862996 14.220754 -11.446686 0.162000 -2.593400 -7.148800 -9.909713 0.494378 -2.756803 38.898194 12.736148 8.028876 0.181838 -5.883784 15.638896 2.978821 -20.217175 -22.356363 -0.594500 4.936000 -13.726200 5.981700 1.058221 10.857441 2.777631 2.148861 2.796509 -7.850202 1.000449 1.835532 5.305194 3.584429 -4.053137 6.711709 3.140933 9.997039 -2.592600 2.079200 3.430500 8.253221 3.697125 -1.018810 -97.226215 1.321296 17.918440 16.151669 -20.852812 -4.568769 -1.606950 -3.019710 2.629773 17.530067 4.683817 2.704400 -7.125000 0.000000 0.000000 -6.695200 38.215600 1.124500 -10.970995 -4.318629 0.323271 99.295885 -0.773662 40.680278 -15.311032 23.164890 -4.926627 0.588537 2.146849 -18.425085 -15.680131 2.908061 -0.299200 7.125000 0.000000 0.000000 7.500600 -28.917900 2.961500 
6.069036 17.670142 -0.619252 -113.677244 -85.235404 108.763630 7.508215 1.047526 -0.028667 -21.043864 -16.459834 -1.535979 0.273445 9.923935 27.926670 -2.843537 14.167104 -11.520651 0.187600 -2.789200 -7.692500 -9.897640 0.496547 -2.780601 38.756454 12.714763 8.403807 0.193686 -5.778534 15.454357 2.863546 -19.886806 -22.678190 -0.550600 4.753400 -13.206400 5.800032 1.051385 10.759192 2.754236 2.117101 2.808980 -7.842640 0.980865 1.945132 5.312597 3.552401 -4.106844 6.654923 3.118904 10.108089 -2.613200 2.078000 3.483000 8.184890 3.712410 -1.001349 -96.981537 1.133147 17.450281 15.900782 -20.446084 -4.367237 -1.605665 -2.969651 2.927735 17.327654 4.688329 2.656900 -7.125000 0.000000 0.000000 -6.876000 38.156800 1.165200 -10.948271 -4.327077 0.317624 99.365980 -0.934240 40.635278 -15.309050 23.193245 -4.939275 0.592068 2.143503 -18.421252 -15.641926 3.005322 -0.329300 7.125000 0.000000 0.000000 7.521300 -28.812900 2.988700 
6.057427 17.665362 -0.585109 -114.144012 -85.178473 109.131392 7.495600 1.077338 -0.026255 -21.105463 -16.193762 -1.394471 0.266032 9.882460 27.869303 -2.775910 13.936357 -11.623291 0.184600 -2.767000 -7.630600 -9.886317 0.496708 -2.803946 38.710390 12.665579 8.712150 0.205769 -5.695101 15.300876 2.780295 -19.660662 -22.937951 -0.515800 4.603300 -12.780500 5.686721 1.075895 10.692249 2.737138 2.128660 2.849822 -7.854996 0.989977 2.052439 5.485813 3.373911 -3.861807 6.467554 2.891325 9.904283 -2.751600 1.937200 3.317300 8.140533 3.670744 -0.961798 -96.700286 0.901518 17.137074 15.697576 -20.106065 -4.196088 -1.592280 -2.975371 3.074633 17.155613 4.970839 2.723500 -7.125000 0.000000 0.000000 -7.082300 38.444200 1.150400 -10.918426 -4.341343 0.330801 99.464683 -1.004527 40.558520 -15.317537 23.216382 -4.953868 0.574237 2.161425 -18.565954 -15.577173 2.861257 -0.278600 7.125000 0.000000 0.000000 7.588100 -28.981300 2.985100 
6.045022 17.661379 -0.547437 -115.065531 -85.064170 109.976068 7.478908 1.114629 -0.020818 -21.112378 -15.890321 -1.285687 0.258410 9.837985 27.800091 -2.727489 13.763108 -11.674144 0.192600 -2.826600 -7.796400 -9.883325 0.492656 -2.827227 38.668557 12.540791 8.864649 0.206518 -5.659365 15.238587 2.795644 -19.655037 -22.777907 -0.552700 4.762300 -13.231800 5.629506 1.105420 10.631213 2.712034 2.156008 2.872693 -7.911246 1.008208 2.108734 5.674838 3.251578 -3.631790 6.330403 2.735507 9.807046 -2.860700 1.847600 3.205800 8.101208 3.651879 -0.932191 -96.421005 0.727122 16.806737 15.505004 -19.782142 -4.031705 -1.580975 -2.998831 3.211453 17.017573 5.344060 2.829600 -7.125000 0.000000 0.000000 -7.275700 38.846500 1.109900 -10.885797 -4.355201 0.342028 99.645063 -1.086156 40.241649 -15.288725 23.180515 -4.942226 0.561837 2.167055 -18.468462 -15.470339 2.766283 -0.245000 7.125000 0.000000 0.000000 7.688900 -29.089700 3.005400 
6.036827 17.660696 -0.506464 -115.680983 -84.919882 110.584732 7.472889 1.139713 -0.016278 -21.100639 -15.718633 -1.245920 0.251868 9.813007 27.751661 -2.744245 13.822233 -11.698780 0.231500 -3.096800 -8.548500 -9.880525 0.496358 -2.835976 38.632521 12.501412 8.899013 0.203113 -5.651778 15.229139 2.804186 -19.614711 -22.588987 -0.560700 4.796200 -13.328300 5.624265 1.086171 10.556751 2.676652 2.135126 2.853305 -7.953741 0.994880 2.224002 5.411267 3.452402 -4.164449 6.626412 3.008747 10.397874 -2.618000 2.056200 3.590600 8.032339 3.713008 -0.958213 -96.171142 0.571278 16.457617 15.337323 -19.487632 -3.886985 -1.573919 -3.006184 3.360507 16.893744 5.606805 2.895200 -7.125000 0.000000 0.000000 -7.436900 39.118300 1.084800 -10.872811 -4.311370 0.315881 99.835944 -1.103449 39.883982 -15.238564 23.118608 -4.913622 0.571293 2.154076 -18.206447 -15.414811 2.874476 -0.279400 7.125000 0.000000 0.000000 7.726300 -28.967400 3.043000 
